<svg xmlns="http://www.w3.org/2000/svg" viewBox="0 0 190 540" role="img" aria-labelledby="title desc">
  <title id="title">Curtain divider</title>
  <desc id="desc">A tall curtain dividing the equipment area and work space.</desc>
  <defs>
    <linearGradient id="cloth" x1="0" y1="0" x2="1" y2="1">
      <stop offset="0" stop-color="#fffef0"/>
      <stop offset=".45" stop-color="#dbe7d2"/>
      <stop offset="1" stop-color="#8da69d"/>
    </linearGradient>
    <linearGradient id="fold" x1="0" y1="0" x2="1" y2="0">
      <stop offset="0" stop-color="#ffffff" stop-opacity=".45"/>
      <stop offset=".5" stop-color="#5f766f" stop-opacity=".35"/>
      <stop offset="1" stop-color="#ffffff" stop-opacity=".18"/>
    </linearGradient>
  </defs>
  <ellipse cx="96" cy="509" rx="69" ry="18" fill="#182034" opacity=".22"/>
  <path d="M22 29 168 54" stroke="#2f3936" stroke-width="12" stroke-linecap="round"/>
  <path d="M34 24 180 49" stroke="#6d7c75" stroke-width="7" stroke-linecap="round"/>
  <g fill="#eff6e8" stroke="#53615c" stroke-width="4">
    <circle cx="48" cy="39" r="9"/>
    <circle cx="78" cy="44" r="9"/>
    <circle cx="108" cy="49" r="9"/>
    <circle cx="138" cy="54" r="9"/>
  </g>
  <path d="M34 53 159 72 144 488c-19 20-37 21-55 2-19 15-38 13-56-8Z" fill="url(#cloth)" stroke="#46534e" stroke-width="8" stroke-linejoin="round"/>
  <path d="M55 57c11 72 9 132 1 196-9 75-3 148 10 226M87 62c13 76 12 141 4 208-8 74-4 140 8 220M119 67c11 82 9 148 1 213-8 70-7 135 6 206" stroke="#657870" stroke-width="7" stroke-linecap="round" opacity=".78"/>
  <path d="M39 65c31 28 38 85 28 157-10 80 5 157 0 250M154 73c-22 73-29 151-20 239 5 57-2 118-10 176" stroke="#ffffff" stroke-width="10" stroke-linecap="round" opacity=".33"/>
  <path d="M39 153c38 13 75 17 112 9M38 285c37 16 74 19 111 7M36 417c36 14 71 18 107 6" stroke="url(#fold)" stroke-width="9" stroke-linecap="round" opacity=".72"/>
</svg>
