<svg xmlns="http://www.w3.org/2000/svg" viewBox="0 0 340 230" role="img" aria-labelledby="title desc">
  <title id="title">Generation storage space</title>
  <desc id="desc">Shared shelves divided into four equal cubbies.</desc>
  <defs>
    <linearGradient id="green" x1="0" y1="0" x2="1" y2="1">
      <stop offset="0" stop-color="#76c77c"/>
      <stop offset="1" stop-color="#3b7a49"/>
    </linearGradient>
  </defs>
  <ellipse cx="174" cy="203" rx="127" ry="20" fill="#182034" opacity=".22"/>
  <path d="M28 52h236l49 43v95H28Z" fill="url(#green)" stroke="#345b38" stroke-width="9" stroke-linejoin="round"/>
  <path d="M28 52 77 22h236l-49 30Z" fill="#a7e49c" stroke="#345b38" stroke-width="9" stroke-linejoin="round"/>
  <path d="M264 52 313 22v73l-49 34Z" fill="#4b8d4f" stroke="#345b38" stroke-width="9" stroke-linejoin="round"/>
  <path d="M43 105h204M43 148h204M94 68v117M145 68v117M196 68v117" stroke="#2f5636" stroke-width="7" stroke-linecap="round"/>
  <rect x="55" y="78" width="28" height="24" rx="4" fill="#fff8df"/>
  <rect x="106" y="123" width="27" height="23" rx="4" fill="#fff8df"/>
  <rect x="158" y="80" width="27" height="22" rx="4" fill="#fff8df"/>
  <rect x="209" y="123" width="27" height="23" rx="4" fill="#fff8df"/>
</svg>
