<svg xmlns="http://www.w3.org/2000/svg" viewBox="0 0 220 240" role="img" aria-labelledby="title desc">
  <title id="title">Manga shelf</title>
  <desc id="desc">A low isometric bookshelf with manga and board games.</desc>
  <defs>
    <linearGradient id="wood" x1="0" y1="0" x2="1" y2="1">
      <stop offset="0" stop-color="#d7b45b"/>
      <stop offset="1" stop-color="#8f6a2f"/>
    </linearGradient>
    <linearGradient id="top" x1="0" y1="0" x2="1" y2="1">
      <stop offset="0" stop-color="#fff1bd"/>
      <stop offset="1" stop-color="#c79b45"/>
    </linearGradient>
  </defs>
  <ellipse cx="118" cy="206" rx="82" ry="20" fill="#182034" opacity=".22"/>
  <path d="M33 50h126l33 32v106H33Z" fill="url(#wood)" stroke="#55452d" stroke-width="8" stroke-linejoin="round"/>
  <path d="M33 50 66 22h126l-33 28Z" fill="url(#top)" stroke="#55452d" stroke-width="8" stroke-linejoin="round"/>
  <path d="M159 50 192 22v60l-33 29Z" fill="#9f7835" stroke="#55452d" stroke-width="8" stroke-linejoin="round"/>
  <path d="M48 98h102M48 146h102" stroke="#654b25" stroke-width="7" stroke-linecap="round"/>
  <rect x="54" y="74" width="15" height="55" rx="4" fill="#f5e6a6"/>
  <rect x="74" y="70" width="17" height="59" rx="4" fill="#6eb8a6"/>
  <rect x="96" y="76" width="15" height="53" rx="4" fill="#de6d63"/>
  <rect x="116" y="69" width="18" height="60" rx="4" fill="#f2c35b"/>
  <rect x="54" y="154" width="49" height="20" rx="5" fill="#f7eee1" stroke="#5d4a34" stroke-width="5"/>
  <rect x="111" y="153" width="39" height="23" rx="5" fill="#7fc2d1" stroke="#5d4a34" stroke-width="5"/>
</svg>
